<?xml version="1.0" encoding="utf-8"?>
<!-- Generator: Adobe Illustrator 16.0.3, SVG Export Plug-In . SVG Version: 6.00 Build 0)  -->
<!DOCTYPE svg PUBLIC "-//W3C//DTD SVG 1.1//EN" "http://www.w3.org/Graphics/SVG/1.1/DTD/svg11.dtd">
<svg version="1.1" id="Layer_1" xmlns="http://www.w3.org/2000/svg" xmlns:xlink="http://www.w3.org/1999/xlink" x="0px" y="0px"
	 width="514px" height="514px" viewBox="0 0 514 514" enable-background="new 0 0 514 514" xml:space="preserve">
<path fill-rule="evenodd" clip-rule="evenodd" fill="#E44C3C" d="M294,511.045c-4.823-0.547-23.517-22.062-28.374-26.671
	l-46.847-45.163c-3.166-4.376-8.24-4.105-11.237-9.211c1.873-7.333,8.965-5.066,10.259-13.173
	c-3.45-3.435-13.136-6.65-14.816-11.827c2.375-5.416,9.661-5.836,11.17-12c-3.288-5.397-12.33-5.844-15.542-12
	c1.275-3.586,3.145-4.039,6.243-6.131c15.09-10.188-3.43-8.097-11.759-19.945c-11.177-9.211-4.078-38.319-6.172-53.797
	c-2.715-20.07-14.271-28.63-23.004-39.057c-44.162-52.729-36.121-130.397,15.55-172.624c11.076-9.051,23.142-16.685,39.765-22.228
	c14.565-4.856,37.483-7.835,53.702-5.496c29.933,6.738,46.674,12.055,69.137,32.226c7.026,6.31,13.017,15.842,15.842,17.877
	c0.128-0.129,0.479-0.279,0.539-0.088l38.096,36.73c17.089,16.335,41.753,42.742,57.634,57.351
	c6.823,6.276,12.382,13.289,19.428,19.572l28.306,28.689c3.545,3.264,6.593,7.287,10.081,9.723
	c0-58.125-12.722-103.799-45.188-151.615c-10.594-15.602-25.74-33.059-40.517-45.483c-12.81-10.771-19.909-17.374-35.341-26.659
	C354.307,17.994,311.79,4.486,268.553,2h-28.804c-16.942,0.986-33.821,3.741-50.327,8.422
	c-39.329,11.152-82.51,33.828-110.676,62.324c-8.808,8.911-15.432,15.568-23.324,25.676C27.56,134.11,10.136,172.369,2.561,219.561
	c-1.24,7.723-2.088,15.494-2.561,23.281v29.663c3.201,53.63,23.555,106.062,56.77,146.726c17.002,20.814,29.61,31.989,51.078,47.922
	c2.71,2.012,4.786,3.265,7.75,5.25c5.528,3.7,9.973,6.01,15.593,9.406c20.964,12.668,45.265,20.693,72,26.999
	c12.134,2.862,25.414,4.552,38.905,5.192h25.363c7.069-0.33,14.036-0.93,20.76-1.783l5.068-0.897
	C293.455,511.271,293.783,511.177,294,511.045"/>
<path fill-rule="evenodd" clip-rule="evenodd" fill="#B93D30" d="M322.803,354.929l-0.119,0.115
	c-2.911,7.135-9.916,10.355-17.444,14.2c1.177,2.62,3.117,3.759,5.278,5.234c1.462,0.997,2.08,1.214,3.578,2.42
	c2.958,2.382,1.289,0.346,2.809,3.188c3.526,5.332-11.941,10.286-14.96,14.176c2.752,5.367,9.649,5.987,11.031,11.346
	c-1.867,5.25-9.94,9.589-14.894,12.33c3.165,6.757,8.733,5.905,10.323,12.062c-1.685,3.021-11.56,9.259-14.931,10.563l-20.347,5.613
	c-8.595,5.35-21.688,4.384-30.499,0.072c-7.349-2.681-16.67-5.224-23.85-7.037l46.847,45.163
	c4.857,4.609,23.551,26.124,28.374,26.671c29.888-0.525,79.916-23.622,104.803-40.241l20.507-15.494
	c14.989-12.604,27.475-24.559,39.407-40.593c4.448-5.976,7.908-10.686,12.086-16.914c8.028-11.969,14.198-24.029,20.225-37.774
	C502.192,334.566,512,300.406,512,263.803c-3.488-2.436-6.536-6.459-10.081-9.723l-28.306-28.689
	c-7.046-6.283-12.604-13.295-19.428-19.572c-15.881-14.609-40.545-41.016-57.634-57.351l-38.096-36.73
	c-0.06-0.191-0.411-0.042-0.539,0.088c5.048,9.077,9.979,15.63,14.394,26.874c16.713,42.56,7.802,90.529-20.697,123.895
	c-6,7.023-12.629,12.591-17.598,22.432C322.855,307.129,335.399,344.755,322.803,354.929"/>
<path fill-rule="evenodd" clip-rule="evenodd" fill="#F3CD3D" d="M228.183,355.016l14.091-0.091l-14.946-137.213
	c-10.822-1.844-32.601,3.934-43.822-11.197c-23.856-32.167,17.309-64.349,41.868-43.875c13.295,11.083,11.946,22.554,12.081,43.163
	c5.88,1.703,32.946,0.577,41.003,0.548c0.021-22.279-2.087-31.41,12.227-43.65c24.672-21.098,65.744,12.769,41.775,43.782
	c-11.659,15.086-31.616,9.418-44.08,11.054L273.631,354.91l49.172,0.019c12.597-10.174,0.053-47.8,11.213-69.903
	c4.969-9.841,11.598-15.408,17.598-22.432c28.499-33.366,37.41-81.335,20.697-123.895c-4.415-11.243-9.346-17.797-14.394-26.874
	c-2.825-2.035-8.815-11.567-15.842-17.877c-22.463-20.17-39.204-25.488-69.137-32.226c-0.976,0.917,0.065,0.373-1.943,1.232
	c-6.693,2.863-14.963,1.188-38.751,14.314c-51.884,28.63-76.997,95.337-51.105,155.592c2.797,6.509,6.177,12.735,9.802,18.191
	c13.259,19.953,29.232,26.088,31.906,54.031C224.6,323.398,218.194,341.66,228.183,355.016"/>
<path fill-rule="evenodd" clip-rule="evenodd" fill="#E9E9E9" d="M218.779,439.211c7.179,1.813,16.5,4.356,23.85,7.037
	c3.21-1.376,0.607-0.282,3.614-2c3.842-2.196,6.74-3.141,11.765-3.204c6.59-0.083,10.548,3.208,15.12,5.132l20.347-5.613
	c3.371-1.304,13.246-7.541,14.931-10.563c-1.59-6.156-7.158-5.305-10.323-12.062l-84.438,11.389
	c1.689,0.139,42.177-9.979,48.878-11.824c15.953-4.393,34.154-8.494,50.454-11.895c-1.382-5.358-8.279-5.979-11.031-11.346
	c-6.087-1.107-36.077,4.064-44.745,4.997c-11.533,1.241-31.679,5.482-41.865,5.315c9.63-2.023,99.335-22.95,101.57-24.488
	c-1.52-2.843,0.149-0.807-2.809-3.188c-1.498-1.206-2.116-1.423-3.578-2.42c-2.161-1.476-4.102-2.614-5.278-5.234
	c-12.137,0.11-31.678,3.768-44.493,5.281c-10.352,1.223-35.033,5.795-43.542,4.978l105.48-24.459l0.119-0.115l-49.172-0.019
	l-2.086,0.141l-26.303,0.01l-2.968-0.136l-14.091,0.091l-20.583-0.072l-14.502-0.02c8.33,11.849,26.849,9.757,11.759,19.945
	c-3.098,2.092-4.968,2.545-6.243,6.131c3.212,6.156,12.254,6.603,15.542,12c-1.51,6.164-8.795,6.584-11.17,12
	c1.681,5.177,11.367,8.393,14.816,11.827c-1.294,8.106-8.387,5.84-10.259,13.173C210.539,435.105,215.614,434.835,218.779,439.211"
	/>
<path fill-rule="evenodd" clip-rule="evenodd" fill="#F29B12" d="M242.274,354.925l2.968,0.136l6.717-1.422l-14.348-136.34
	l40.338-0.028l-13.932,136.42l7.527,1.36l2.086-0.141l14.749-137.374c12.464-1.636,32.421,4.032,44.08-11.054
	c23.969-31.013-17.104-64.88-41.775-43.782c-14.313,12.24-12.205,21.371-12.227,43.65c-8.058,0.028-35.124,1.155-41.003-0.548
	c-0.134-20.609,1.214-32.081-12.081-43.163c-24.559-20.473-65.725,11.708-41.868,43.875c11.221,15.13,33,9.353,43.822,11.197
	L242.274,354.925z M226.57,206.506c-12.759,0-26.542,1.958-33.909-6.177c-6.462-7.134-6.586-20.596,0.21-27.456
	c6.734-6.796,20.473-6.813,27.607-0.358C228.472,179.746,226.57,193.769,226.57,206.506z M289.354,206.506
	c0-11.986-1.362-26.459,5.582-33.572c6.521-6.677,20.596-7.098,27.61-0.478c6.714,6.336,7.891,20.178,0.605,27.698
	C314.627,208.953,303.52,206.333,289.354,206.506z"/>
<path fill-rule="evenodd" clip-rule="evenodd" fill="#F6E189" d="M207.6,354.943l20.583,0.072
	c-9.989-13.355-3.583-31.617-5.336-49.933c-2.674-27.943-18.647-34.078-31.906-54.031c-3.625-5.456-7.005-11.682-9.802-18.191
	c-25.891-60.254-0.778-126.962,51.105-155.592c23.789-13.126,32.058-11.451,38.751-14.314c2.009-0.859,0.968-0.315,1.943-1.232
	c-16.732-1.342-37.136,4.275-50.087,10.132c-38.678,17.492-70.087,57.717-71.856,105.103c-1.201,32.157,9.907,66.563,30.964,88.082
	c24.955,25.503,21.143,35.508,20.378,66.937C201.914,349.359,205.502,348.543,207.6,354.943"/>
<path fill-rule="evenodd" clip-rule="evenodd" fill="#F3CD3D" d="M193.098,354.924l14.502,0.02c-2.098-6.4-5.686-5.584-5.263-22.967
	c0.765-31.429,4.577-41.434-20.378-66.937c-21.057-21.52-32.165-55.925-30.964-88.082c1.769-47.386,33.179-87.611,71.856-105.103
	c12.952-5.857,33.355-11.474,50.087-10.132c-16.219-2.339-39.137,0.64-53.702,5.496c-16.623,5.543-28.688,13.176-39.765,22.228
	c-51.671,42.227-59.712,119.895-15.55,172.624c8.733,10.427,20.289,18.986,23.004,39.057
	C189.02,316.604,181.921,345.713,193.098,354.924"/>
<polygon fill-rule="evenodd" clip-rule="evenodd" fill="#F3CD3D" points="245.242,355.061 271.545,355.051 264.018,353.69 
	277.949,217.271 237.611,217.298 251.959,353.639 "/>
<path fill-rule="evenodd" clip-rule="evenodd" fill="#F3CD3D" d="M226.57,206.506c0-12.737,1.901-26.76-6.091-33.991
	c-7.134-6.454-20.874-6.438-27.607,0.358c-6.797,6.86-6.672,20.321-0.21,27.456C200.028,208.463,213.812,206.506,226.57,206.506"/>
<path fill-rule="evenodd" clip-rule="evenodd" fill="#F3CD3D" d="M289.354,206.506c14.165-0.172,25.272,2.447,33.798-6.352
	c7.285-7.52,6.108-21.361-0.605-27.698c-7.015-6.62-21.09-6.199-27.61,0.478C287.992,180.046,289.354,194.52,289.354,206.506"/>
<path fill-rule="evenodd" clip-rule="evenodd" fill="#A8A89D" d="M305.239,369.244c7.528-3.845,14.533-7.065,17.444-14.2
	l-105.48,24.459c8.51,0.817,33.19-3.755,43.542-4.978C273.562,373.012,293.103,369.354,305.239,369.244"/>
<path fill-rule="evenodd" clip-rule="evenodd" fill="#A8A89D" d="M301.944,394.263c3.019-3.89,18.486-8.844,14.96-14.176
	c-2.234,1.538-91.939,22.465-101.57,24.488c10.186,0.167,30.332-4.074,41.865-5.315
	C265.867,398.327,295.857,393.155,301.944,394.263"/>
<path fill-rule="evenodd" clip-rule="evenodd" fill="#A8A89D" d="M298.082,417.938c4.953-2.741,13.026-7.08,14.894-12.33
	c-16.3,3.4-34.501,7.502-50.454,11.895c-6.701,1.845-47.188,11.963-48.878,11.824L298.082,417.938z"/>
<path fill-rule="evenodd" clip-rule="evenodd" fill="#87877D" d="M242.629,446.248c8.812,4.312,21.904,5.277,30.499-0.072
	c-4.572-1.924-8.53-5.215-15.12-5.132c-5.025,0.063-7.923,1.008-11.765,3.204C243.236,445.966,245.839,444.872,242.629,446.248"/>
</svg>
