<?xml version="1.0" encoding="UTF-8"?>
<!DOCTYPE svg PUBLIC "-//W3C//DTD SVG 1.1//EN" "http://www.w3.org/Graphics/SVG/1.1/DTD/svg11.dtd">
<!-- Creator: CorelDRAW X7 -->
<svg xmlns="http://www.w3.org/2000/svg" xml:space="preserve" width="272px" height="271px" version="1.1" shape-rendering="geometricPrecision" text-rendering="geometricPrecision" image-rendering="optimizeQuality" fill-rule="evenodd" clip-rule="evenodd"
viewBox="0 0 239 239"
 xmlns:xlink="http://www.w3.org/1999/xlink">
 <g id="Layer_x0020_1">
  <metadata id="CorelCorpID_0Corel-Layer"/>
  <g id="_267671356112">
   <path fill="#F75200" d="M140 192c-3,8 7,11 17,17 20,11 60,27 82,30 0,-7 -4,-17 -6,-24l-8 -21c-3,-11 -13,-30 -19,-40 -7,-12 -15,-24 -24,-34 -7,-9 -20,-25 -29,-30 -3,-3 -9,-3 -5,3l18 26c12,18 23,39 28,61 7,33 -12,20 -29,15 -7,-1 -18,-6 -25,-3z"/>
   <path fill="#F75200" d="M3 0l-3 0c1,21 23,69 34,87 10,16 33,47 47,59 3,2 6,5 11,4 1,-5 -6,-12 -10,-17 -13,-16 -24,-37 -31,-56 -4,-9 -16,-44 4,-40l33 10c7,3 14,2 12,-4 -1,-6 -25,-17 -30,-20 -15,-6 -36,-15 -52,-19 -4,-1 -14,-3 -15,-4z"/>
   <path fill="#F75200" d="M0 239c16,0 71,-24 87,-34 6,-5 12,-8 18,-12 5,-4 12,-9 17,-13 7,-6 18,-16 24,-22 2,-3 5,-5 5,-11 -7,-1 -14,7 -18,10 -6,4 -11,8 -18,12 -13,9 -80,42 -78,17 0,-5 5,-16 7,-22 2,-6 5,-16 4,-24 -8,-4 -11,4 -17,15 -3,5 -5,9 -7,12 -7,14 -24,59 -24,72z"/>
   <path fill="#FFBD10" d="M239 0l-4 0 -2 1c0,0 0,0 -1,0l-19 6c-8,3 -16,5 -23,8 -33,16 -43,20 -74,45 -7,6 -19,17 -25,24 -2,2 -3,4 -3,8 6,1 13,-7 18,-10 9,-7 27,-18 38,-24 0,0 0,0 0,0l7 -3c4,-2 7,-3 11,-4 9,-4 42,-15 40,4 0,3 -2,6 -3,10 -3,8 -7,20 -8,28 -1,4 -1,4 1,5 1,1 -2,2 4,2 5,0 9,-11 13,-18 5,-8 8,-16 12,-25 9,-19 9,-25 15,-42 1,-4 2,-9 3,-15z"/>
  </g>
 </g>
</svg>
